<?xml version="1.0" standalone="no"?><!DOCTYPE svg PUBLIC "-//W3C//DTD SVG 1.1//EN" "http://www.w3.org/Graphics/SVG/1.1/DTD/svg11.dtd"><svg t="1747983984529" class="icon" viewBox="0 0 1024 1024" version="1.1" xmlns="http://www.w3.org/2000/svg" p-id="13664" xmlns:xlink="http://www.w3.org/1999/xlink" width="200" height="200"><path d="M875.326976 361.5744H4.926976v-102.4a99.4304 99.4304 0 0 1 102.4-102.4h153.6v-51.2a50.5344 50.5344 0 0 1 51.2-51.2h256a48.7936 48.7936 0 0 1 51.2 51.2v51.2h153.6a97.5872 97.5872 0 0 1 102.4 102.4v102.4z m-307.2-204.8v-51.2H312.126976v51.2h256z m-190.3616 292.864a95.1808 95.1808 0 0 1 6.3488-28.8768h95.1808a95.5392 95.5392 0 0 1 6.3488 28.8768 55.8592 55.8592 0 0 1-53.9136 54.5792 53.1456 53.1456 0 0 1-38.2976-15.8208 54.7328 54.7328 0 0 1-15.6672-38.7584z m634.5216 73.8304a176.1792 176.1792 0 0 1-34.8672 160.3584 163.84 163.84 0 0 1-177.664 44.9024l-199.68 221.2864a59.8528 59.8528 0 0 1-85.7088 3.2256 61.44 61.44 0 0 1-3.1232-86.5792l199.68-221.2864a168.96 168.96 0 0 1 25.6-182.8864 162.6624 162.6624 0 0 1 155.392-51.2c25.6 6.4-139.5712 121.9072-63.4368 192.4608s174.4896-105.8816 184.0128-80.1792zM619.326976 668.7744l-153.6 204.8H107.326976a95.3856 95.3856 0 0 1-102.4-102.4v-358.4h307.2a221.4912 221.4912 0 0 0 13.1072 42.9056 108.4416 108.4416 0 1 0 216.576 0A298.9568 298.9568 0 0 0 516.926976 412.7744h204.8a197.4784 197.4784 0 0 0-102.4 256z" fill="#0091FF" p-id="13665"></path></svg>